<svg width="100.00000000000001" height="100.00000000000001" xmlns="http://www.w3.org/2000/svg" xml:space="preserve" enable-background="new 0 0 100 100" version="1.1">

 <g>
  <title>Layer 1</title>
  <path id="svg_1" d="m90.023,49.938l1.268,-0.168c-5.771,-2.998 -9.768,-1.929 -9.768,-1.929c-1.135,0.21 -2.166,0.556 -3.105,0.998l-0.471,-0.998l-1.484,1.146c3.162,-2.48 7.047,-5.29 8.834,-5.952c0,0 0.371,0.333 0.74,-0.186c0.369,-0.518 1.516,-2.775 0.777,-4.403c-0.74,-1.628 -7.438,-11.768 -13.545,-15.135c0,0 -0.703,-0.259 -1.221,-0.111s-5.07,1.887 -3.516,2.405c1.555,0.519 6.957,2.147 8.586,3.849c0,0 0.998,2.221 0.334,2.702c-0.666,0.481 -3.48,2.369 -3.813,2.332c-0.334,-0.037 -0.814,-1.258 -0.814,-1.258s0.443,-1.11 0.074,-1.481c-0.371,-0.37 -1.295,-0.185 -1.295,-0.481c0,-0.295 0.26,-0.925 0.26,-0.925s-0.26,-1.591 -0.297,-1.702c-0.037,-0.111 -2.627,-0.185 -3.146,0.333c0,0 -2.553,-0.074 -3.107,1.295c0,0 -2.072,0.999 -2.48,1.221c-0.406,0.222 -0.703,1.665 0.852,1.258c1.066,-0.279 1.766,-0.489 2.102,-0.593l0,0l-1.719,1.292c-1.508,-0.61 -6.773,-2.661 -9.467,-2.661c-3.164,0 -7.993,2.665 -12.267,6.827c0,0 -0.721,1.333 -0.5,2.165c0,0 3.219,1.11 3.885,2.387c0,0 6.217,-0.278 6.995,-0.555c0,0 1.553,-3.164 2.83,-3.441c1.275,-0.277 6.494,-0.999 8.938,-0.833c0,0 1.332,-0.777 2.275,-1.11c0,0 -0.811,-1.337 -1.645,-2.134l1.59,-0.938c0.186,0.279 0.346,0.506 0.389,0.52c0.111,0.037 0.443,0.666 0.443,0.666l-0.777,0.333c0,0 0.221,0.814 0.518,0.814s1.518,0.333 1.518,0.333s-1.646,0.087 -4.201,1.662c0,0 -6.504,0.211 -8.686,0.854c0,0 -0.861,-0.314 -3.053,3.479l-0.307,0.129l-6.845,0.555l-0.389,-0.352c0,0 -0.306,-0.971 -3.784,-2.229c0,0 -8.663,0.893 -13.659,-2.141c0,0 -1.075,-2.367 -1.408,-2.995c-0.333,-0.629 -3.775,-0.48 -5.071,-0.517c-1.295,-0.037 -6.032,-0.48 -7.364,-1.369c0,0 -0.888,0.038 -0.778,0.667c0,0 -5.033,-1.369 -5.625,-1.184c-0.592,0.186 1.295,1.443 1.295,1.443s1.702,1.888 1.739,2.183c0.037,0.296 -0.185,1.554 0.333,1.703l-2.96,1.11c0,0 -0.074,0.222 0.111,0.333c0,0 -4.218,0.296 -4.255,0.481c-0.037,0.186 -0.37,0.889 0.481,1.296c0,0 -0.038,0.888 1.036,1.239c0,0 -0.333,0.426 0,0.759c0,0 -0.777,-0.111 -0.925,0.185c-0.148,0.296 -0.851,1.332 -0.074,1.628c0.777,0.296 -0.296,1.295 -0.296,1.295s-1.037,1.222 -0.851,1.629c0.185,0.405 -2.258,4.144 -2.258,4.144s-0.037,0.813 0.629,0c0.666,-0.815 8.251,-10.732 9.806,-11.065s4.589,-0.481 5.033,-0.333s6.328,2.812 13.025,6.735c0,0 0.555,0.111 0.703,-0.296l1.037,0.815l-0.185,0.555l-1.666,2.183c0,0 -5.181,-2.923 -5.847,-2.923c0,0 -0.518,0.186 1.036,1.702l0.179,0.208c-2.063,-1.053 -4.398,-1.647 -6.872,-1.647c-8.357,0 -15.131,6.774 -15.131,15.13c0.002,8.355 6.775,15.129 15.132,15.129c6.52,0 12.078,-4.124 14.205,-9.907c2.126,0.201 4.537,0.528 5.292,0.958c0,0 2.331,-0.112 2.516,-0.187c0,0 0.962,0.519 2.221,0.667c1.369,0.036 13.692,0.519 13.915,0.222c0.221,-0.297 0.479,-0.37 0.814,-0.407c0.332,-0.036 4.662,-0.11 9.213,0.963c0,0 1.184,-0.704 0.555,-1.444c-0.629,-0.739 -2.813,-3.699 -2.773,-3.885c0.035,-0.186 0.404,-1.332 0.627,-1.221c0.223,0.11 1,2.516 1.295,2.368c0.297,-0.148 4.627,-11.805 6.145,-13.322c0.584,-0.584 2.26,-2.003 4.271,-3.59l0.35,0.72c-4.869,3.384 -6.547,9.272 -6.547,9.272c0.445,-1.222 1.73,-1.858 1.73,-1.858c-0.727,1.694 -1.129,3.561 -1.129,5.521c0,7.743 6.277,14.021 14.02,14.021c7.744,0 14.021,-6.277 14.021,-14.021c-0.001,-5.82 -3.548,-10.811 -8.597,-12.932zm-35.255,-11.769c-0.26,0.221 -1.664,2.304 -1.734,2.457c-0.068,0.152 -0.412,0.671 -0.855,0.745c-0.445,0.074 -4.33,0.444 -5.07,0.444c-0.74,0 -1.406,-0.333 -1.406,-0.333s5.589,-0.444 6.29,-0.555c0.705,-0.112 1.666,-1.925 2.283,-2.775c0.617,-0.851 3.99,-0.648 3.99,-0.648c-0.946,0.018 -2.998,0.24 -3.498,0.665zm-43.642,31.49c-1.745,-1.737 -2.827,-4.14 -2.827,-6.789c0,-0.617 0.06,-1.221 0.173,-1.807c0.32,0.709 0.793,1.428 1.487,2.081c0.85,0.804 1.885,1.081 2.906,1.082c0.388,1.433 1.375,2.621 2.675,3.279c-1.095,1.975 -2.839,2.34 -4.414,2.154zm11.596,-14.257c0,0 -1.179,-0.95 -2.429,-1.804c1.094,0.286 2.113,0.761 3.019,1.388c-0.328,0.239 -0.59,0.416 -0.59,0.416zm-7.766,-1.654c-0.711,1.248 -2.592,4.687 -2.558,5.09c0.023,0.28 0.415,1 0.895,1.597c-0.374,0.701 -0.591,1.498 -0.605,2.343c-2.386,-0.332 -3.356,-1.874 -3.703,-3.459c1.056,-2.635 3.249,-4.696 5.971,-5.571zm-2.546,16.981c0.868,-0.052 1.822,-0.273 2.786,-0.801c0.854,-0.468 1.401,-1.168 1.744,-1.95c0.304,0.057 0.618,0.087 0.939,0.087c1.457,0 2.775,-0.604 3.719,-1.572c1.338,1.919 0.583,3.932 -0.364,5.35c-1.045,0.393 -2.175,0.607 -3.355,0.607c-2.032,-0.001 -3.917,-0.638 -5.469,-1.721zm10.418,0.338c0.476,-1.046 0.818,-2.437 0.513,-4.062c-0.132,-0.701 -0.436,-1.284 -0.839,-1.771c0.051,-0.099 0.1,-0.2 0.146,-0.304c1.55,0.678 3.045,1.344 3.999,1.795c-0.801,1.809 -2.142,3.326 -3.819,4.342zm61.77,-17.777c1.561,0 3.031,0.378 4.334,1.041c-1.051,0.112 -2.254,0.472 -3.395,1.352c0,0 -0.002,0.001 -0.002,0.002c-0.307,-0.04 -0.619,-0.063 -0.938,-0.063c-0.963,0 -1.883,0.191 -2.727,0.535l-0.996,-2.113c1.147,-0.485 2.405,-0.754 3.724,-0.754zm-5.506,1.944l0.965,1.992c-0.459,0.37 -0.871,0.795 -1.227,1.264c-0.334,-1.109 -0.119,-2.263 0.262,-3.256zm-1.35,0.954c-0.15,0.713 -0.213,1.53 -0.078,2.416c-0.445,-0.112 -0.973,-0.219 -1.479,-0.312c0.42,-0.772 0.948,-1.479 1.557,-2.104zm-2.724,6.682c0,-0.161 0.004,-0.321 0.014,-0.481c1.297,1.195 2.475,1.978 2.475,1.978l0,0c0.207,0.979 0.611,1.885 1.17,2.676c-1.266,-0.012 -2.385,-0.665 -3.25,-1.411c-0.265,-0.875 -0.409,-1.802 -0.409,-2.762zm9.505,9.578c-3.615,-0.028 -6.758,-2.066 -8.365,-5.052c0.91,0.515 2.08,0.915 3.494,0.874c0.037,-0.001 0.074,-0.003 0.111,-0.006c1.283,1.153 2.979,1.854 4.834,1.854c0.736,0 1.447,-0.11 2.119,-0.316c-0.355,1.18 -1.253,2.04 -2.193,2.646zm1.86,-0.168c0.717,-0.695 1.395,-1.644 1.768,-2.917c0.021,-0.069 0.039,-0.141 0.055,-0.21c2.125,-1.224 3.57,-3.49 3.637,-6.098c1.004,0.708 1.539,1.83 1.82,2.908c-1.102,3.223 -3.876,5.674 -7.28,6.317zm7.705,-8.123c-0.438,-0.909 -1.133,-1.859 -2.244,-2.619c-0.045,-0.031 -0.092,-0.061 -0.139,-0.089c-0.496,-2.488 -2.27,-4.521 -4.605,-5.382c1.021,-0.704 2.285,-0.826 3.402,-0.733c2.234,1.755 3.676,4.48 3.676,7.536c0,0.437 -0.032,0.866 -0.09,1.287z" fill="#000000"/>
 </g>
</svg>