<svg width="100" height="100" xmlns="http://www.w3.org/2000/svg" data-name="Your Icon">

 <g>
  <title>Layer 1</title>
  <g id="svg_1">
   <path id="svg_2" d="m76.57,40.6a18.6,18.6 0 0 0 -6,1c-0.11,-0.35 -0.34,-1 -0.38,-1.13s-0.13,-0.12 -0.13,-0.12a0.13,0.13 0 0 0 0.06,-0.19l-2.86,-6.93l-2.26,0.77a2.94,2.94 0 0 1 -1.46,0.44c0.34,-0.21 -18.86,1.13 -25.54,1.28l-2.84,-9.72l-1.34,-0.32l0,-0.38a3.58,3.58 0 0 0 1.65,-0.25l1.85,-1.34a11.74,11.74 0 0 0 3,0c0.57,-0.25 0.19,-0.95 -1.53,-1s-12,-0.13 -12,-0.13a3.89,3.89 0 0 1 -0.95,-0.13c-0.45,-0.12 -0.77,0.38 -0.64,0.57c0,0 0.38,0.7 1.91,1a7.59,7.59 0 0 1 2.54,1a2.92,2.92 0 0 0 2.1,0.51l0.32,0.63l0.32,0.32s0,0.45 0.76,1.08s1.75,4.84 1.75,4.84l1,3.29a0.44,0.44 0 0 1 -0.19,0l2,6.42l-0.13,0.32c-0.25,0 -0.63,0.45 -0.63,0.45l-1.88,2a18.42,18.42 0 1 0 4.26,23.61l0.16,0a0.21,0.21 0 0 0 0.16,-0.08a0.19,0.19 0 0 0 0.16,0.09l0.25,0a0.18,0.18 0 0 0 0.16,-0.08a0.19,0.19 0 0 0 0.16,0.09l0.25,0a0.18,0.18 0 0 0 0.16,-0.08a0.21,0.21 0 0 0 0.16,0.1l0.25,0a0.21,0.21 0 0 0 0.17,-0.08a0.17,0.17 0 0 0 0.15,0.09l0.25,0a0.19,0.19 0 0 0 0.17,-0.08a0.2,0.2 0 0 0 0.15,0.1l0.26,0a0.21,0.21 0 0 0 0.16,-0.08a0.19,0.19 0 0 0 0.15,0.09l0.26,0a0.17,0.17 0 0 0 0.16,-0.07a0.19,0.19 0 0 0 0.15,0.09l0.26,0a0.21,0.21 0 0 0 0.16,-0.08a0.19,0.19 0 0 0 0.16,0.09l0.25,0a0.18,0.18 0 0 0 0.16,-0.08a0.19,0.19 0 0 0 0.16,0.09l0.25,0a0.18,0.18 0 0 0 0.16,-0.08a0.21,0.21 0 0 0 0.16,0.1l0.25,0a0.21,0.21 0 0 0 0.17,-0.08a0.42,0.42 0 0 0 0.29,0l0.15,-0.08a0.44,0.44 0 0 1 0.16,-0.06l1,2.31l-0.6,-0.12a0.45,0.45 0 0 0 -0.53,0.33l-0.08,0.81a0.44,0.44 0 0 0 0.43,0.44l1.43,0.05c0,0.08 0.23,0.45 1,0.26a1.28,1.28 0 0 0 0.49,-0.21l1.56,0.06a0.45,0.45 0 0 0 0.52,-0.33l0,0a0.45,0.45 0 0 0 -0.44,-0.44l-1.3,-0.27s0,0 0,-0.06l-1,-3.59a0.39,0.39 0 0 0 0.08,-0.1l0.08,-0.14a0.43,0.43 0 0 1 0.26,-0.2l0.16,0a0.45,0.45 0 0 0 0.29,-0.28l0,-0.15a0.45,0.45 0 0 1 0.22,-0.25l0.15,-0.07a0.47,0.47 0 0 0 0.23,-0.32l0,-0.17a0.4,0.4 0 0 1 0.16,-0.28l0.14,-0.1a0.44,0.44 0 0 0 0.17,-0.35l0,-0.24a0.51,0.51 0 0 1 0.11,-0.31l0.12,-0.12a0.43,0.43 0 0 0 0.1,-0.38l0,-0.17a0.45,0.45 0 0 1 0.06,-0.32l0.09,-0.14a0.42,0.42 0 0 0 0,-0.39l0.02,-0.17a0.44,0.44 0 0 1 0,-0.32l0.07,-0.16a0.42,0.42 0 0 0 0,-0.39l-0.13,-0.13a0.4,0.4 0 0 1 0,-0.32l0,-0.17a0.43,0.43 0 0 0 -0.1,-0.38l-0.14,-0.13a0.51,0.51 0 0 1 -0.11,-0.31l0,-0.17a0.38,0.38 0 0 0 -0.1,-0.29c4.58,-5 10.25,-11.94 14.53,-16.53c0.89,-1 2,-1.66 2.29,-1.53a2.87,2.87 0 0 1 0.53,0.67a18.43,18.43 0 1 0 8.84,-2.26l0,0.02zm-44.85,-15.83l0,0.38l-1.08,0a1.7,1.7 0 0 1 -0.51,-0.38s0.7,-0.83 3.95,-0.89c0,0 1.84,-0.06 2.41,-0.13a4.88,4.88 0 0 1 -1.65,1a2.62,2.62 0 0 1 -1,0.13l0,-0.26a12.12,12.12 0 0 0 -2.12,0.15zm5.92,19.14s0.5,-0.32 0.7,0.32s1.25,4.23 1.48,5a1.28,1.28 0 0 0 0.11,0.27a16.76,16.76 0 0 1 1.58,3.63l1.1,4l0,0a0.2,0.2 0 0 0 -0.16,0.09a0.18,0.18 0 0 0 -0.16,-0.08l-0.29,0a0.2,0.2 0 0 0 -0.16,0.09a0.18,0.18 0 0 0 -0.11,-0.07a18.34,18.34 0 0 0 -5.73,-11.47l1.64,-1.78zm6,17.16a3.44,3.44 0 0 1 -1.87,0.33a3.6,3.6 0 0 1 1.49,-1.71l0.38,1.38zm-8.76,6.79l-0.25,0a0.18,0.18 0 0 0 -0.16,0.08a0.2,0.2 0 0 0 -0.16,-0.09l-0.25,0a0.21,0.21 0 0 0 -0.17,0.08a0.19,0.19 0 0 0 -0.15,-0.09l-0.26,0a0.21,0.21 0 0 0 -0.16,0.08a0.2,0.2 0 0 0 -0.15,-0.1l-0.17,0a0.21,0.21 0 0 0 -0.16,0.08a0.19,0.19 0 0 0 -0.15,-0.09l-0.26,0a0.18,0.18 0 0 0 -0.16,0.08a0.2,0.2 0 0 0 -0.16,-0.1l-0.25,0a0.18,0.18 0 0 0 -0.16,0.08a0.19,0.19 0 0 0 -0.16,-0.09l-0.25,0a0.16,0.16 0 0 0 -0.16,0.07a0.2,0.2 0 0 0 -0.16,-0.09l-0.25,0a0.21,0.21 0 0 0 -0.17,0.08a0.17,0.17 0 0 0 -0.11,-0.09l-4.91,-5l0.12,-0.21a0.46,0.46 0 0 1 0.63,-0.17l0,0a0.09,0.09 0 0 0 0.11,0a4.49,4.49 0 0 0 0.68,-0.82l0,0l1.4,0.25l6.68,5.54l0,0l0.21,0.17c-0.1,0.14 -0.2,0.29 -0.31,0.43a0.18,0.18 0 0 0 -0.13,-0.08l-0.04,0zm-9.56,-0.34a0.2,0.2 0 0 0 -0.16,-0.1l-0.16,0a0.18,0.18 0 0 0 -0.16,0.08a0.19,0.19 0 0 0 -0.16,-0.09l-0.25,0a0.16,0.16 0 0 0 -0.16,0.07a0.2,0.2 0 0 0 -0.16,-0.09l-0.25,0a0.21,0.21 0 0 0 -0.17,0.08l0,0a0.16,0.16 0 0 1 0.18,-0.09l0.06,0a0.17,0.17 0 0 0 0.2,-0.2l0,-0.06a0.16,0.16 0 0 1 0.11,-0.19l0.06,0a0.18,0.18 0 0 0 0.07,-0.28l0,0a0.2,0.2 0 0 1 0,-0.23l0,0a0.18,0.18 0 0 0 -0.07,-0.28l-0.06,0a0.17,0.17 0 0 1 -0.11,-0.2l0,-0.24a0.17,0.17 0 0 0 -0.2,-0.2l-0.06,0a0.16,0.16 0 0 1 -0.19,-0.11l0,0l1.31,-1.46l0.29,0.52l0.28,3a0.2,0.2 0 0 0 -0.2,0.07l-0.04,0zm-5.63,-6.73s0,0 0,-0.06l0.2,0l0.11,0a0.19,0.19 0 0 1 0.12,0.07l-0.25,0.24a0.17,0.17 0 0 1 -0.15,-0.18l-0.03,-0.07zm-0.28,-2.4l0.26,0.15a0.17,0.17 0 0 1 0.06,0.22a0.17,0.17 0 0 1 -0.22,0.06l-0.19,-0.11a0.17,0.17 0 0 1 -0.06,-0.23l0,0a0.09,0.09 0 0 1 0.19,-0.09l-0.04,0zm-0.16,0.94l0.07,-0.13a0.09,0.09 0 0 1 0.12,0l0.23,0.13a0.18,0.18 0 0 1 0.06,0.22l0,0a0.16,0.16 0 0 1 -0.22,0.06l-0.23,-0.13a0.09,0.09 0 0 1 0.01,-0.15l-0.04,0zm0.3,-1.6l0,0a0.09,0.09 0 0 1 0.12,0l0.07,0a0.16,0.16 0 0 1 0.07,0.18l-0.3,0a0.14,0.14 0 0 1 0.08,-0.18l-0.04,0zm2,-2.11a0.13,0.13 0 0 1 0,-0.08l0.26,0.27a0.17,0.17 0 0 1 -0.14,0.07a0.15,0.15 0 0 1 -0.15,-0.17l0.03,-0.09zm1.45,-0.35l0.13,-0.23a0.09,0.09 0 0 1 0.12,0l0.12,0.07a0.08,0.08 0 0 1 0,0.12l-0.13,0.23a0.15,0.15 0 0 1 -0.21,0.06a0.15,0.15 0 0 1 -0.03,-0.25zm0.76,0l0.11,-0.19a0.17,0.17 0 0 1 0.23,-0.06l0.05,0a0.09,0.09 0 0 1 0,0.12l-0.14,0.26a0.17,0.17 0 0 1 -0.22,0.06a0.16,0.16 0 0 1 -0.02,-0.19l-0.01,0zm18.1,2.22a0.21,0.21 0 0 0 0.16,0.08l0.26,0a0.19,0.19 0 0 0 0.15,-0.09a0.21,0.21 0 0 0 0.17,0.08l0.11,0l0,0.14l-0.07,0a0.42,0.42 0 0 0 -0.35,0.19l-0.1,0.13a0.39,0.39 0 0 1 -0.27,0.18l-0.13,0c0,-0.22 0,-0.43 0,-0.64a0.2,0.2 0 0 0 0.08,-0.07l-0.01,0zm-11.93,10.23a0.19,0.19 0 0 0 -0.15,-0.09l-0.26,0a0.21,0.21 0 0 0 -0.16,0.08a0.2,0.2 0 0 0 -0.15,-0.1l-0.21,0a0.21,0.21 0 0 0 -0.16,0.08a0.19,0.19 0 0 0 -0.16,-0.09l-0.25,0a0.16,0.16 0 0 0 -0.16,0.08a0.2,0.2 0 0 0 -0.16,-0.1l-0.25,0a0.18,0.18 0 0 0 -0.16,0.08a0.2,0.2 0 0 0 -0.16,-0.09l-0.25,0a0.24,0.24 0 0 0 -0.16,0.07l-1.77,-3.16l-0.08,-0.85l0.07,-0.08s0.08,-0.08 0,-0.54l0.12,-0.21l4.81,4.91l-0.14,0a0.21,0.21 0 0 0 -0.21,0.01zm-3.43,-0.15a0.2,0.2 0 0 0 -0.15,-0.1l-0.26,0a0.21,0.21 0 0 0 -0.16,0.08a0.19,0.19 0 0 0 -0.15,-0.09l-0.19,0l-0.26,-2.76l1.59,2.82l-0.25,0a0.21,0.21 0 0 0 -0.17,0.05zm-4.26,-4.63a0.17,0.17 0 0 1 -0.24,0.06l0,0l0.21,-0.26a0.17,0.17 0 0 1 0.03,0.2zm2.7,-7.48l0,0l-0.09,0.11l-0.05,0l0,-0.32l0.06,0l0.06,0a0.1,0.1 0 0 1 0.02,0.21zm2.2,2l0,0l-0.25,0l0.2,-0.21a0.2,0.2 0 0 1 0.05,0.22l0,-0.01zm-7.49,2.54l0,0l0.18,0.1a0.15,0.15 0 0 1 0.05,0.21a0.14,0.14 0 0 1 -0.21,0.06l-0.1,-0.05a0.19,0.19 0 0 1 -0.06,-0.25l0,0l0.14,-0.07zm2.59,-4.56l0.06,-0.1a0.19,0.19 0 0 1 0.25,-0.06l0,0a0.09,0.09 0 0 1 0,0.12l-0.1,0.18a0.17,0.17 0 0 1 -0.22,0.06a0.18,0.18 0 0 1 0.01,-0.24l0,0.04zm2.44,0.19a0.17,0.17 0 0 1 -0.06,-0.22a0.2,0.2 0 0 1 0.07,-0.06l-0.01,0.28zm-2.15,2.37l0.29,0l0,0l0,0l0,0.14l-0.51,0.83a2.09,2.09 0 0 0 0,0.24l-0.31,-0.08l0.3,-0.29l0,0l0.11,0l0,-0.12l0.18,-0.18l0,0l-0.08,-0.08l-0.14,0.14l0,-0.16l0.35,-0.19l-0.05,-0.1l-0.31,0.18l0,-0.13a1,1 0 0 1 0.17,-0.2zm-0.3,0.5l0,0.2l-0.23,0.3a1.24,1.24 0 0 1 0.1,-0.39l0.13,-0.11zm0.11,1l0,0.06l-0.41,-0.34l0,0l0.38,0.16c0.01,0.07 0.02,0.13 0.03,0.17l0,-0.05zm1.52,0.77l0.19,0l-0.28,0.33l-0.06,0l0.15,-0.33zm0.27,-0.11l-0.23,0l0.05,-0.1l0.23,0l-0.05,0.1zm-1.06,0.21l0.07,0l0.27,0.27l-0.2,0l-0.14,-0.27zm0,-0.1l0,0l-0.05,-0.1l0.05,0.1zm1.24,-0.14l0.14,0l-0.16,0l0,0l0.02,0zm-1.21,-0.12a4.26,4.26 0 0 1 0.76,0l-0.25,0.58l0,0l-0.28,-0.29l0,0l0,-0.11l-0.13,0l-0.2,-0.07l0,0l-0.07,0.07l-0.08,-0.19a1.13,1.13 0 0 0 0.23,0.06l0.02,-0.05zm1.1,0.26l0.23,0a1.38,1.38 0 0 1 -0.45,0.27l0.22,-0.27zm2.9,-2l0,0a0.18,0.18 0 0 1 -0.07,-0.08l-0.03,-0.09a0.16,0.16 0 0 0 0.16,0.08l0.06,0l-0.12,0.09zm-4.21,-0.37l-0.18,0a1.11,1.11 0 0 1 0.19,-0.09l-0.01,0.09zm-0.65,0.49l-0.08,0l0.07,-0.11l0.01,0.11zm0.12,1.36l0,0.47a1.48,1.48 0 0 1 -0.39,-0.8l0.39,0.33zm0.11,0.08l0,0l0,0l0,0a0.83,0.83 0 0 0 0.19,0.15l0.2,0.35l-0.39,0l-0.06,0l0.06,-0.5zm0.5,0.6l0.12,0.22a1.43,1.43 0 0 1 -0.44,-0.19l0.32,-0.03zm5,-2.66l-0.23,0a0.19,0.19 0 0 0 -0.16,0.09a0.18,0.18 0 0 0 -0.1,-0.07c0,-0.07 0,-0.14 -0.07,-0.2l1,-0.1l-0.44,0.28zm-5.5,5.53l-0.06,0.14l0,-0.15l0.06,0.01zm2.66,0.38l0.05,0.51l-0.18,-0.35l0.13,-0.16zm-0.44,-8.6l-0.23,-0.08l0.23,-0.56l0,0.64zm-2.69,0.05l-0.09,-1.13l0.59,1a4.27,4.27 0 0 0 -0.5,0.13zm-2.67,2.87l-0.08,0l0.09,0l-0.01,0zm0.36,0l0.08,0a0.21,0.21 0 0 1 -0.08,0zm-0.24,2.67l-1.24,0.12l1.08,-0.61a4,4 0 0 0 0.16,0.47l0,0.02zm7.92,-2.42l0,0l0,0a0.1,0.1 0 0 1 -0.13,0l0,0l0.13,0zm0.21,0.75l-0.07,0.12a0.09,0.09 0 0 1 -0.12,0l-0.23,-0.12a0.16,0.16 0 1 1 0.16,-0.27l0.22,0.13a0.09,0.09 0 0 1 0.04,0.14zm-2.27,3.65l0,0a0.21,0.21 0 0 1 0,0.11c0,-0.08 0,-0.17 -0.07,-0.27l0.07,0.16zm12.32,-2.17l0,0.06l0.27,0c0,0.13 0,0.26 0,0.39l-3.78,-0.48l3.51,0.03zm0.37,-1.37c0,0.4 0,0.8 0,1.19l-0.29,0l0,0.06l-4.44,0l-4.39,-0.57l-1.12,-0.21c0,-0.13 0,-0.25 0,-0.38a3.93,3.93 0 0 0 -0.13,-1l0,0a0.2,0.2 0 0 0 0.15,0.06l0.22,0a0.19,0.19 0 0 0 0.15,-0.09a0.21,0.21 0 0 0 0.16,0.08l0.26,0a0.2,0.2 0 0 0 0.15,-0.1a0.18,0.18 0 0 0 0.16,0.08l0.26,0a0.19,0.19 0 0 0 0.15,-0.09a0.21,0.21 0 0 0 0.17,0.08l0.25,0a0.2,0.2 0 0 0 0.16,-0.09a0.18,0.18 0 0 0 0.16,0.08l0.25,0a0.2,0.2 0 0 0 0.16,-0.1a0.16,0.16 0 0 0 0.16,0.08l0.25,0a0.19,0.19 0 0 0 0.16,-0.09a0.21,0.21 0 0 0 0.16,0.08l0.26,0a0.19,0.19 0 0 0 0.15,-0.09a0.21,0.21 0 0 0 0.16,0.08l0.26,-0.17a0.16,0.16 0 0 0 0.15,-0.09a0.21,0.21 0 0 0 0.16,0.08l0.26,0a0.17,0.17 0 0 0 0.15,-0.09a0.21,0.21 0 0 0 0.17,0.08l0.25,0a0.24,0.24 0 0 0 0.16,-0.09a0.16,0.16 0 0 0 0.16,0.07l0.25,0a0.19,0.19 0 0 0 0.16,-0.09a0.18,0.18 0 0 0 0.16,0.08l0.25,0a0.19,0.19 0 0 0 0.16,-0.09a0.21,0.21 0 0 0 0.16,0.08l0.26,0a0.2,0.2 0 0 0 0.15,-0.1a0.18,0.18 0 0 0 0.16,0.08l0.26,0a0.19,0.19 0 0 0 0.15,-0.09a0.21,0.21 0 0 0 0.17,0.08l0.25,0a0.17,0.17 0 0 0 0.15,-0.09a0.21,0.21 0 0 0 0.17,0.08l0.25,0a0.21,0.21 0 0 0 0.16,-0.1a0.16,0.16 0 0 0 0.16,0.08l0.25,0a0.19,0.19 0 0 0 0.16,-0.09a0.18,0.18 0 0 0 0.16,0.08l0.25,0a0.19,0.19 0 0 0 0.16,-0.09l0,0a13.37,13.37 0 0 1 0.13,1.33zm-0.11,-1.66a0.21,0.21 0 0 0 -0.16,-0.08l-0.26,0a0.19,0.19 0 0 0 -0.15,0.09a0.21,0.21 0 0 0 -0.16,-0.08l-0.26,0a0.19,0.19 0 0 0 -0.15,0.09a0.17,0.17 0 0 0 -0.16,-0.07l-0.29,0a0.17,0.17 0 0 0 -0.15,0.09a0.21,0.21 0 0 0 -0.17,-0.08l-0.25,0a0.2,0.2 0 0 0 -0.16,0.09a0.18,0.18 0 0 0 -0.16,-0.08l-0.25,0a0.2,0.2 0 0 0 -0.16,0.1a0.16,0.16 0 0 0 -0.16,-0.08l-0.25,0a0.19,0.19 0 0 0 -0.16,0.09a0.21,0.21 0 0 0 -0.16,-0.08l-0.27,0a0.19,0.19 0 0 0 -0.15,0.09a0.21,0.21 0 0 0 -0.16,-0.08l-0.26,0a0.2,0.2 0 0 0 -0.15,0.1a0.19,0.19 0 0 0 -0.17,-0.08l-0.25,0a0.17,0.17 0 0 0 -0.15,0.09a0.21,0.21 0 0 0 -0.17,-0.08l-0.24,0a0.2,0.2 0 0 0 -0.16,0.09a0.18,0.18 0 0 0 -0.14,0.02l-0.25,0a0.2,0.2 0 0 0 -0.16,0.1a0.16,0.16 0 0 0 -0.16,-0.08l-0.25,0a0.19,0.19 0 0 0 -0.16,0.09a0.21,0.21 0 0 0 -0.16,-0.08l-0.26,0a0.19,0.19 0 0 0 -0.15,0.09a0.21,0.21 0 0 0 -0.16,-0.08l-0.29,0a0.2,0.2 0 0 0 -0.15,0.1a0.21,0.21 0 0 0 -0.17,-0.08l-0.25,0a0.17,0.17 0 0 0 -0.15,0.09a0.21,0.21 0 0 0 -0.17,-0.08l-0.25,0a0.2,0.2 0 0 0 -0.16,0.09a0.18,0.18 0 0 0 -0.16,-0.08l-0.25,0a0.17,0.17 0 0 0 -0.16,0.09l0,0l0.59,-0.33l8.81,-0.82l0,0.06l0.25,0c0,0.25 0.08,0.49 0.1,0.74l0.01,0.03zm-11.12,0.08a0.13,0.13 0 0 1 0,-0.1a0.14,0.14 0 0 1 0.16,-0.15l0.07,0l-0.23,0.25zm-4.35,8.88a0.86,0.86 0 0 0 0.05,0.27l-0.05,0a0,0 0 0 1 0,0l0,-0.6a0.83,0.83 0 0 1 0.77,-0.52a0.64,0.64 0 0 1 0.24,0l-0.05,0.06a0.63,0.63 0 0 0 -0.19,0a0.76,0.76 0 0 0 -0.8,0.79l0.03,0zm0.58,-1.13l0,0a0.17,0.17 0 0 0 -0.27,0.08l0,0.05a0.17,0.17 0 0 1 -0.2,0.11l-0.11,0l0,-1.78l0.16,-0.39a4.91,4.91 0 0 0 0.86,0.08l0,0l0,0s1,0.12 0.38,0.89l-0.82,0.96zm0.1,-2.28l-0.11,0.19a0.18,0.18 0 0 1 -0.23,0.06l-0.06,0a0.11,0.11 0 0 1 0,-0.13l0.15,-0.25a0.16,0.16 0 0 1 0.22,-0.06l0,0a0.17,0.17 0 0 1 0.03,0.19zm0.35,0.07l0.11,-0.19l-0.06,0.31l0,0a0.1,0.1 0 0 1 -0.05,-0.08l0,-0.04zm12,4.18l-0.2,-0.17l0,0l-6.55,-5.33l5.19,0.93l2.9,1.24l0,0l0.32,0.14a14.25,14.25 0 0 1 -1.65,3.23l-0.01,-0.04zm1.7,-3.39l-0.3,-0.13l0,0l-2.47,-1l3,0.53c-0.08,0.24 -0.15,0.44 -0.22,0.64l-0.01,-0.04zm0.34,-7.41l0,0.06l-8.57,0.8l7.49,-4.21l0,0l0.21,-0.11a14.4,14.4 0 0 1 1.07,3.39l-0.2,0.07zm-1.15,-3.45l0,0l-7.7,4.32l-1.31,0.12a1,1 0 0 1 -0.07,-0.15a0.08,0.08 0 0 0 0,0l-0.08,0l7.29,-7.14l0,0l0.22,-0.21a15.09,15.09 0 0 1 1.85,2.93l-0.2,0.13zm-1.77,-3.23l-0.23,0.22l0,0l-7.27,7.21l-0.36,-0.2a0.46,0.46 0 0 1 -0.17,-0.63l0,0a0.15,0.15 0 0 0 0,-0.07l6.89,-7.69a12.61,12.61 0 0 1 1.14,1.16zm-3,-2.37l0,0l-6.48,7.8a2.53,2.53 0 0 0 -0.33,-0.12l0,-0.91l3.62,-8.46l0,0l0.12,-0.27a14.61,14.61 0 0 1 3.15,1.67l-0.08,0.29zm-3.3,-1.71l0.06,0l-3.51,8.22l0.08,-8.91l0.1,0l0,-0.38a14.23,14.23 0 0 1 3.41,0.78l-0.14,0.29zm-7.33,-0.52l0.06,0l0.77,8.3l-4.12,-7.34l0.05,0l-0.16,-0.28a14.15,14.15 0 0 1 3.37,-1l0.03,0.32zm0.94,10.51l-0.21,-0.21l0.09,0l0.05,0a0.11,0.11 0 0 1 0.08,0.1l-0.01,0.11zm-1.72,5.22a0.17,0.17 0 0 1 -0.16,0.1l0.16,-0.1zm1.84,1.88a0.16,0.16 0 0 1 0.1,-0.08l-0.15,0.19a0.09,0.09 0 0 1 0,0l0.05,-0.11zm-6.43,8l0,0l6.37,-7.68a3.12,3.12 0 0 0 0.43,0.15l0,0.43l-3.68,8.6l-0.05,0l-0.18,0.42l0.21,0.09l0.18,-0.42l-0.06,0l3.51,-8.37l0,1.59a0.18,0.18 0 0 0 0,0.14l0,0.06a0.19,0.19 0 0 1 -0.12,0.2l-0.05,0a0.18,0.18 0 0 0 -0.08,0.28l0,0l0,0c-0.06,0.08 -0.69,0.84 -0.63,1.08s0.83,0.19 0.83,0.19l0,0l0,0l-0.06,5.66l-0.06,0l0,0.41a14.36,14.36 0 0 1 -6.87,-2.45l0.31,-0.38zm7,-3.5a0,0 0 0 0 0,0l0.06,0l-0.06,0zm3.61,5.73l-0.06,0l-0.49,-5.24l0.14,0a0.19,0.19 0 0 0 0.16,-0.08a0.19,0.19 0 0 0 0.16,0.09l0.25,0a0.18,0.18 0 0 0 0.16,-0.08a0.19,0.19 0 0 0 0.16,0.09l0.25,0a0.18,0.18 0 0 0 0.16,-0.08a0.17,0.17 0 0 0 0.06,0.06l2.28,4.07l0,0l0.2,0.35a14.26,14.26 0 0 1 -3.35,1.08l-0.08,-0.26zm3.38,-1.21l-0.06,0l-2.23,-4l0.21,0a0.21,0.21 0 0 0 0.17,-0.08a0.19,0.19 0 0 0 0.15,0.09l0.26,0a0.18,0.18 0 0 0 0.16,-0.08a0.2,0.2 0 0 0 0.15,0.1l0.26,0a0.21,0.21 0 0 0 0.16,-0.08a0.19,0.19 0 0 0 0.15,0.09l0.26,0a0.17,0.17 0 0 0 0.16,-0.07a0.19,0.19 0 0 0 0.16,0.09l0.25,0a0.18,0.18 0 0 0 0.16,-0.08a0.2,0.2 0 0 0 0.16,0.1l0.25,0a0.18,0.18 0 0 0 0.16,-0.08a0.25,0.25 0 0 0 0.13,0.09l1.93,2l0,0l0.22,0.23a14.05,14.05 0 0 1 -3,1.92l-0.22,-0.24zm16.44,-12.32s-0.32,0.26 -0.45,0l-0.09,-0.31a3.42,3.42 0 0 1 0.71,0.13l-0.17,0.18zm-20.76,-4.18l0,0l6.47,-7.78l0,0l0.2,-0.23c0.16,0.12 0.32,0.23 0.47,0.36l-7.14,7.65zm-0.5,-10.67l0,0.37l0.06,0l-0.09,9.16l-0.35,0.8a4.55,4.55 0 0 0 -0.92,-0.1a3.75,3.75 0 0 0 -0.82,0.09l-0.72,-1.29l-0.79,-8.54l0.06,0l0,-0.4a14.6,14.6 0 0 1 2.31,-0.18c0.39,0.03 0.83,0.05 1.26,0.09zm-7.41,1.27l0.17,0.3l0.05,0l4.23,7.55l0.14,1.45l-0.3,0.13l0,0l0,0l-7,-7.16l0,0l-0.32,-0.33l-0.16,0.16l0.32,0.33l0,0l7,7.18l-0.24,0.42a0.47,0.47 0 0 1 -0.63,0.17l0,0a0.08,0.08 0 0 0 -0.1,0a4.17,4.17 0 0 0 -0.93,1.27l-7.62,-6.37l0,0l-0.35,-0.29l-0.13,0.15a14.66,14.66 0 0 1 5.87,-4.96zm-5.85,4.91l0.36,0.29l0,0l7.66,6.36c-0.06,0.15 -0.12,0.29 -0.17,0.45l-0.33,0l-8.74,-3.73l0,-0.06l-0.42,-0.18l0,0a14.39,14.39 0 0 1 1.64,-3.13zm-2.6,8.3a14.35,14.35 0 0 1 0.89,-5l0.42,0.18l0,-0.05l8.5,3.63l-9.24,-0.1l0,-0.07l-0.45,0l0,0.22l0.46,0l0,-0.06l9.54,0.14l0.33,0.14a4.49,4.49 0 0 0 -0.13,1a4.43,4.43 0 0 0 0.1,0.9l-1.3,0.75l-8.36,0.78l0,-0.06l-0.46,0l0,0.22l0.46,0l0,-0.06l8.12,-0.75l-7.1,4l0,-0.05l-0.4,0.23l0.11,0.2l0.4,-0.23l0,0l7.23,-4.17l1.51,-0.14a1.89,1.89 0 0 0 0.09,0.21l0,0l0.18,0.1l-7.15,7l0,0l-0.33,0.32l0.16,0.16l0.33,-0.32l0,0l7.17,-7l0.27,0.15a0.47,0.47 0 0 1 0.17,0.63l0,0a0.09,0.09 0 0 0 0,0.11a4.2,4.2 0 0 0 1.43,1l-6.35,7.65l0,0l-0.29,0.35a14.53,14.53 0 0 1 -6.31,-12.01zm13.48,14.51l0,-0.43l-0.06,0l0.06,-5.62a0.19,0.19 0 0 0 0.1,0a0.19,0.19 0 0 0 0.18,0.15l0.25,0a0.18,0.18 0 0 0 0.16,-0.08a0.21,0.21 0 0 0 0.16,0.1l0.25,0a0.21,0.21 0 0 0 0.17,-0.08a0.17,0.17 0 0 0 0.15,0.09l0.22,0a0.19,0.19 0 0 0 0.17,-0.08a0.2,0.2 0 0 0 0.15,0.1l0.26,0a0.21,0.21 0 0 0 0.16,-0.08a0.19,0.19 0 0 0 0.15,0.09l0.26,0a0.17,0.17 0 0 0 0.16,-0.07a0.19,0.19 0 0 0 0.15,0.09l0,0l0.54,5.27l-0.06,0l0,0.35a14.31,14.31 0 0 1 -2.55,0.23c-0.32,0.01 -0.68,-0.01 -1.03,-0.03zm10.54,-3.47l-0.23,-0.24l0,0l-1.85,-1.89l0.12,0a0.19,0.19 0 0 0 0.17,-0.08a0.18,0.18 0 0 0 0.15,0.1l0.25,0a0.21,0.21 0 0 0 0.17,-0.08a0.19,0.19 0 0 0 0.15,0.09l0.26,0a0.17,0.17 0 0 0 0.16,-0.07a0.19,0.19 0 0 0 0.15,0.09l0.26,0a0.21,0.21 0 0 0 0.16,-0.08a0.19,0.19 0 0 0 0.16,0.09l0.25,0a0.18,0.18 0 0 0 0.16,-0.08a0.19,0.19 0 0 0 0.16,0.09l0.25,0a0.18,0.18 0 0 0 0.16,-0.08a0.21,0.21 0 0 0 0.16,0.1l0.25,0a0.21,0.21 0 0 0 0.17,-0.08a0.17,0.17 0 0 0 0.15,0.09l0.1,0a13.9,13.9 0 0 1 -1.89,2.03zm9.77,-1.94a0.18,0.18 0 0 0 -0.16,0.08a0.19,0.19 0 0 0 -0.16,-0.09l-0.25,0a0.16,0.16 0 0 0 -0.16,0.07a0.2,0.2 0 0 0 -0.16,-0.09l-0.25,0a0.21,0.21 0 0 0 -0.17,0.08a0.17,0.17 0 0 0 -0.15,-0.09l-0.25,0a0.21,0.21 0 0 0 -0.17,0.08a0.19,0.19 0 0 0 -0.15,-0.09l-0.26,0a0.21,0.21 0 0 0 -0.16,0.08a0.2,0.2 0 0 0 -0.15,-0.1l-0.26,0a0.21,0.21 0 0 0 -0.16,0.08a0.22,0.22 0 0 0 -0.12,-0.09a20,20 0 0 0 1,-2l0,0a0.42,0.42 0 0 1 0.19,0.26l0,0.16a0.44,0.44 0 0 0 0.26,0.3l0.16,0.07a0.45,0.45 0 0 1 0.23,0.22l0.07,0.15a0.44,0.44 0 0 0 0.31,0.25l0.16,0a0.39,0.39 0 0 1 0.27,0.18l0.1,0.13a0.42,0.42 0 0 0 0.35,0.19l0.16,0a0.42,0.42 0 0 1 0.3,0.13l0.11,0.11a0.17,0.17 0 0 0 -0.14,0.08a0.2,0.2 0 0 0 -0.16,-0.1l-0.23,-0.05zm-1,-4.15l0.75,0.13a8.35,8.35 0 0 0 1.68,0.11l1,2.23a3.69,3.69 0 0 1 -3.38,-2.47l-0.05,0zm7.17,-1.22a3.73,3.73 0 0 1 -1.06,2.6l-0.58,-2a3.77,3.77 0 0 0 0.81,-0.66l0.72,-0.76a3.58,3.58 0 0 1 0.16,0.82l-0.05,0zm-1.2,-5.17l0,0a0.43,0.43 0 0 0 -0.37,-0.15l-0.16,0a0.46,0.46 0 0 1 -0.31,-0.1l-0.13,-0.11a0.43,0.43 0 0 0 -0.39,-0.09l-0.16,0a0.4,0.4 0 0 1 -0.32,-0.05l-0.15,-0.08a0.41,0.41 0 0 0 -0.39,0l0,0a0.21,0.21 0 0 0 -0.13,0l-0.26,0l-3.93,-13.18l-1.46,-5a1.09,1.09 0 0 1 1.21,-1.21c0.7,0 21.11,-1 23.52,-0.32c0.69,0.2 1,1.14 1,1.14l-17.57,19.15zm32.57,2.68s0,0 -0.06,0l-0.15,-0.08l0.27,0l0,0l-0.06,0.08zm-3.38,2.41l-0.14,0.23a0.08,0.08 0 0 1 -0.12,0l-0.07,0.01a0.08,0.08 0 0 1 0,-0.12l0.13,-0.23a0.16,0.16 0 0 1 0.22,-0.05l0,0a0.16,0.16 0 0 1 0.03,0.16l-0.05,0zm-0.43,-1.18l-0.14,0l0.15,-0.36l0.2,0.35l-0.21,0.01zm-0.4,1l0,0a0.14,0.14 0 0 1 0.06,0.21l-0.06,0.21a0.15,0.15 0 0 1 -0.22,0.06l-0.06,0l0,0l0.18,-0.42a0.15,0.15 0 0 1 0.15,-0.09l-0.05,0.03zm-1,0.11a0.09,0.09 0 0 1 0,-0.12l0,-0.07a0.16,0.16 0 0 1 0.22,0l0,0l-0.21,0.25l-0.01,-0.06zm-2.37,-5.23l0,-0.05l0,0l0.25,0.21l0,0a0.15,0.15 0 0 1 -0.21,0.06a0.17,0.17 0 0 1 -0.06,-0.22l0.02,0zm3.37,-2.46l0.14,-0.23a0.08,0.08 0 0 1 0.12,0l0.12,0.07a0.08,0.08 0 0 1 0,0.12l-0.13,0.23a0.16,0.16 0 0 1 -0.22,0.05a0.16,0.16 0 0 1 -0.03,-0.24zm0.43,1.18l0.37,0l-0.19,0.46l-0.27,-0.48l0.09,0.02zm0.76,-1.28l-0.15,0.26a0.15,0.15 0 0 1 -0.21,0.05a0.14,0.14 0 0 1 -0.06,-0.21l0.11,-0.19a0.15,0.15 0 0 1 0.22,-0.06l0.06,0a0.08,0.08 0 0 1 0.05,0.15l-0.02,0zm2.91,4.38a0.14,0.14 0 0 1 0.21,-0.06l0.19,0.11a0.15,0.15 0 0 1 0.06,0.22l0,0.06a0.08,0.08 0 0 1 -0.12,0l-0.26,-0.15a0.15,0.15 0 0 1 -0.06,-0.18l-0.02,0zm0.47,-0.57l-0.07,0.12a0.08,0.08 0 0 1 -0.12,0l-0.23,-0.13a0.16,0.16 0 0 1 0,-0.22a0.15,0.15 0 0 1 0.21,0l0.23,0.13a0.08,0.08 0 0 1 0,0.1l-0.02,0zm-1.44,0.17a2.62,2.62 0 0 1 0,0.28l-0.31,-0.16l0.33,-0.18l-0.02,0.06zm-3.89,3.78a0.19,0.19 0 0 1 -0.14,0.09l0.16,-0.19a0.16,0.16 0 0 1 0,0.1l-0.02,0zm5,-4.58l-0.06,0l-0.17,-0.1a0.15,0.15 0 0 1 -0.06,-0.22a0.16,0.16 0 0 1 0.22,-0.06l0.09,0.06a0.17,0.17 0 0 1 0.07,0.24l0,0l0,0l-0.09,0.08zm-2.24,4.23a0.14,0.14 0 0 1 0,-0.07l0,0.33a0.09,0.09 0 0 1 -0.06,-0.08l0.06,-0.18zm-4.07,-4.41l0.91,0a2,2 0 0 0 -0.25,0.77l-0.15,0.08l-0.62,-0.52c0.03,-0.1 0.07,-0.23 0.11,-0.33zm3.71,-2.8a0.23,0.23 0 0 1 0.07,-0.07l0,0.29l0,0a0.15,0.15 0 0 1 -0.07,-0.22zm1.41,3l-0.7,0.68l0,0a1.83,1.83 0 0 0 -0.38,-1.07l0.92,-0.08a2.53,2.53 0 0 1 0.16,0.51l0,-0.04zm-0.73,0.86l0,0l0.14,0.11l-0.17,0.09a1.23,1.23 0 0 0 0.03,-0.16l0,-0.04zm-3.74,-0.2s0,0.05 0,0.07l0,0l0,-0.07zm1.87,2l0.09,0l-0.09,0.23l-0.13,-0.23l0.13,0zm2.12,-1.76l0,0l0,0zm-1.73,-2l0,-0.09l0.53,-0.64l0.38,0.16l0,1a1.8,1.8 0 0 0 -0.91,-0.38l0,-0.05zm-0.18,-0.1l0,0.06l0,0l0,-0.11l0,0.05zm-0.18,0.06l0,0l-0.3,-0.81l0.1,0l0.33,0.59l-0.13,0.22zm-2.48,3.04l0.64,-0.64a1.88,1.88 0 0 0 0.6,0.93l-1,0.09a2.08,2.08 0 0 1 -0.24,-0.38zm2.19,0.72l0.19,0.33l-0.4,0.47a2.46,2.46 0 0 1 -0.53,-0.15l0,-0.91a2.06,2.06 0 0 0 0.74,0.28l0,-0.02zm1.19,0.68l-0.62,-0.64l0,-0.06a1.92,1.92 0 0 0 0.94,-0.48l0.1,0l0.09,0.9a2.59,2.59 0 0 1 -0.51,0.3l0,-0.02zm0.55,-1.4a1.76,1.76 0 0 0 0.34,-0.7l0.28,-0.16l0.51,0.42a3.83,3.83 0 0 1 -0.22,0.56l-0.9,0l-0.01,-0.12zm0.72,-0.91l0,0l0.42,0.18l0,0.2l-0.42,-0.38zm-0.19,-0.26l0.62,-0.6a3.4,3.4 0 0 1 0.07,0.46l-0.45,0.31l-0.24,-0.17zm2,-1.35l1,-0.1l-0.87,0.49c-0.03,-0.1 -0.06,-0.23 -0.11,-0.36l-0.02,-0.03zm-2.77,-2.7l-0.16,-0.05l0.17,-0.38l-0.01,0.43zm-0.5,1.48l-0.47,0.57l0,-0.08l0.24,-0.56l0.23,0.07zm-3.39,2.1l0.44,0.37l-0.47,-0.2l0.03,-0.17zm-1.5,-0.46l0,0zm2.23,1.1l0,0l0,0.25l-0.66,0.65a3.57,3.57 0 0 1 -0.18,-0.66l0.62,-0.34l0.22,0.1zm-1.68,0.82a0.15,0.15 0 0 1 0.06,0.22a0.16,0.16 0 0 1 -0.22,0.06l-0.09,-0.1a0.09,0.09 0 0 1 -0.06,-0.06l0.29,-0.17l0.02,0.05zm-0.31,0.77l-1.31,0.12l1.12,-0.63a3.84,3.84 0 0 0 0.19,0.48l0,0.03zm0.21,0a0.09,0.09 0 0 1 0.09,-0.09l0.16,0a0.16,0.16 0 0 1 0.12,0.06l-0.39,0l0.02,0.03zm2.69,2.41l0.12,0l-0.13,0.3l0.01,-0.3zm0.67,-1.46l0.18,-0.22l-0.1,0.23l-0.08,-0.01zm0.42,-0.51l0.16,-0.19l0.58,0.6a2.66,2.66 0 0 1 -0.49,0.1l-0.27,-0.47l0.02,-0.04zm0.83,1.43a0.16,0.16 0 0 1 0.22,-0.06l0,0a0.16,0.16 0 0 1 0.06,0.22l-0.06,0.09a0.16,0.16 0 0 1 -0.1,0.08l-0.15,-0.27l0.03,-0.06zm0.72,0.33l0.12,1.29l-0.62,-1.08a4.24,4.24 0 0 0 0.5,-0.19l0,-0.02zm1.92,-2.66l0,0a0.15,0.15 0 0 1 0.21,-0.06a0.23,0.23 0 0 1 0.08,0.09l-0.29,0l0,-0.03zm0.57,-0.24l0.65,0.28l-0.73,0a2.76,2.76 0 0 0 0.1,-0.28l-0.02,0zm-2.57,-4.7l0,0.07a0.16,0.16 0 0 1 -0.11,0.07l0,-0.33l0.05,0l0,0a0.09,0.09 0 0 1 0.06,0.19zm0.19,7.16l0.14,0.15a0.17,0.17 0 0 1 -0.12,0.08l-0.02,-0.23zm12.37,-5.94l0,0.06l-8.56,0.79l7.49,-4.2l0,0l0.3,-0.17a14.71,14.71 0 0 1 1.1,3.44l-0.33,0.08zm-10.46,0.92l0,0l0.12,-0.12l0,0a0.09,0.09 0 0 1 -0.16,0.12l0.04,0zm-0.18,0l0,0a0.17,0.17 0 0 1 -0.16,-0.17a0.17,0.17 0 0 1 0.17,-0.15l0.07,0a0.16,0.16 0 0 1 0.14,0.08l-0.22,0.24zm-2,0.32l-0.07,-0.07l0,-1a2.62,2.62 0 0 1 1,1l-0.93,0.07zm6.72,-10.33l0,0l-6.38,7.68l-0.44,-0.17l0,-0.73l3.61,-8.45l0,0l0.14,-0.31a14.36,14.36 0 0 1 3.24,1.66l-0.17,0.32zm-3.35,-1.72l0,0l-3.51,8.21l0.14,-8.81l0.08,0l0,-0.4a14.29,14.29 0 0 1 3.42,0.76l-0.13,0.24zm-7.29,-0.52l0,0l0.69,7.36l-2.76,-7.21a16,16 0 0 1 2,-0.51l0.07,0.36zm-0.1,9.44l-6.28,-6.4l0.05,0l-0.28,-0.29a14.67,14.67 0 0 1 2.41,-1.61a88.72,88.72 0 0 1 4.05,8.3l0.05,0zm0.94,2.23c0.11,0.29 0.23,0.56 0.33,0.81a1.64,1.64 0 0 0 -0.21,0.25l-0.96,0a2.83,2.83 0 0 1 0.79,-1.06l0.05,0zm-2,0.66l0,0l0,0zm-9.61,-3.22l0,0l8.5,3.63l-9.23,-0.09l0,-0.06l-0.4,0a14.53,14.53 0 0 1 0.8,-3.55l0.33,0.07zm11.06,4.67l-0.51,0.28a2.26,2.26 0 0 1 0,-0.26a1.93,1.93 0 0 1 0,-0.24l0.51,0.22zm-1.49,-0.38a0.14,0.14 0 0 1 -0.21,0.06l-0.19,-0.11a0.15,0.15 0 0 1 -0.06,-0.22l0,-0.06a0.08,0.08 0 0 1 0.12,0l0.26,0.15a0.15,0.15 0 0 1 0.06,0.18l0.02,0zm-0.47,0.57l0.07,-0.12a0.08,0.08 0 0 1 0.12,0l0.23,0.13a0.16,0.16 0 0 1 0,0.22l0,0a0.16,0.16 0 0 1 -0.21,0.06l-0.23,-0.14a0.08,0.08 0 0 1 0,-0.15l0.02,0zm0.22,0.72l0,0a0.09,0.09 0 0 1 0.12,0l0,0l-0.22,0.12a0.19,0.19 0 0 1 0.08,-0.12l0.02,0zm-9.9,1.88l0,-0.06l8.12,-0.76l-7.1,4l0,0l-0.32,0.18a14,14 0 0 1 -1,-3.27l0.3,-0.09zm10.55,-1a0.17,0.17 0 0 1 -0.17,0.15l-0.09,0a0.18,0.18 0 0 1 -0.16,-0.1l0.42,-0.05zm2.18,-0.2l0,0.94a2.67,2.67 0 0 1 -1.06,-0.85l1.06,-0.09zm-6.8,10.33l0,0l6.42,-7.89l0.32,0.1l0,0.62l-3.67,8.6l-0.06,0l-0.18,0.43l0.21,0.09l0.18,-0.43l0,0l3.57,-8.36l-0.1,9.22l-0.06,0l0,0.4a14.29,14.29 0 0 1 -6.87,-2.56l0.24,-0.22zm8.7,-8.09l0,0l0.09,0.15l0,0l0,0a0.09,0.09 0 0 1 -0.11,-0.19l0.02,0.04zm1.91,10.31l-0.06,0l-0.77,-8.39l4.06,7.25l0,0l0.23,0.4a14.7,14.7 0 0 1 -3.37,1.06l-0.09,-0.32zm3.61,-0.81l-0.23,-0.4l0,0l-4.19,-7.46l-0.14,-1.56l0.07,0a0.08,0.08 0 0 0 0,0l0.07,-0.12l7.2,7.36l0,0l0.28,0.28a14.6,14.6 0 0 1 -3.17,2l0.11,-0.1zm-4.67,-10l0,0l0.05,0a0.17,0.17 0 0 1 0.15,0.17l0,0.06l-0.2,-0.23zm-0.13,-1.12l0,-0.83l0.83,0a2.8,2.8 0 0 1 -0.83,0.83zm11.85,2.61l0,0.06l-8.08,-3.46l8.87,0.1l0,0.06l0.4,0a14.38,14.38 0 0 1 -0.75,3.42l-0.44,-0.18zm0.77,-3.47l0,0.06l-9.13,-0.1l-0.91,-0.38a4,4 0 0 0 0.1,-0.91a4.14,4.14 0 0 0 -0.09,-0.87l1.11,-0.62l8.8,-0.82l0,0.06l0.38,0a14.94,14.94 0 0 1 0.2,2.43c0,0.4 0,0.79 -0.05,1.19l-0.41,-0.04zm-1,-7.48l-0.32,0.18l0,0.05l-7.7,4.33l-1.25,0.11c0,-0.11 -0.08,-0.22 -0.13,-0.33l0,0l7.18,-7l0,0l0.29,-0.28a14.55,14.55 0 0 1 2,2.94l-0.07,0zm-2,-3.11l-0.29,0.29l0,0l-7.2,7l-0.49,-0.29a0.44,0.44 0 0 1 -0.16,-0.62l0,0a0.08,0.08 0 0 0 0,-0.11a4.36,4.36 0 0 0 -1.19,-0.89l6.35,-7.65l0.05,0l0.24,-0.29a14.37,14.37 0 0 1 2.73,2.56l-0.04,0zm-9.9,-5.09l0,0.47l0.06,0l-0.1,9.15l-0.27,0.64a4.15,4.15 0 0 0 -1,-0.12a4.24,4.24 0 0 0 -0.88,0.09l-0.73,-1.9l-0.72,-7.74l0.06,0l0,-0.38a15,15 0 0 1 2.43,-0.2c0.43,-0.06 0.8,-0.04 1.19,-0.01l-0.04,0zm-10.6,3.41l0.29,0.29l0,0l6.59,6.57c0.12,0.26 0.23,0.53 0.34,0.78l0,0a0.46,0.46 0 0 1 -0.63,0.16l0,0a0.08,0.08 0 0 0 -0.11,0a4.34,4.34 0 0 0 -1,1.4l-7.6,-6.25l0,0l-0.29,-0.24a15.09,15.09 0 0 1 2.45,-2.71l-0.04,0zm-2.57,2.85l0.27,0.23l0,-0.05l7.6,6.31c-0.06,0.16 -0.12,0.33 -0.17,0.5l-0.25,0l-8.73,-3.78l0,0l-0.27,-0.15a13.75,13.75 0 0 1 1.59,-3.06l-0.04,0zm-2.51,7.05l0.41,0l0,-0.06l9.5,0.1l0.29,0.13a4.16,4.16 0 0 0 0,1.93l-1.24,0.77l-8.36,0.77l0,-0.06l-0.38,0a15,15 0 0 1 -0.26,-2.42c0,-0.37 0.05,-0.77 0.08,-1.16l-0.04,0zm1.3,7.32l0.34,-0.2l0,0l7.32,-4.15l1.58,-0.15l0,0s0,0 0,0l0.3,0.18l-7.22,7.16l0,0l-0.28,0.27a14.25,14.25 0 0 1 -2,-3.11l-0.04,0zm2.1,3.28l0.3,-0.29l0,-0.05l7.26,-7.1l0.15,0.09a0.46,0.46 0 0 1 0.16,0.63l0,0a0.08,0.08 0 0 0 0,0.11a4.35,4.35 0 0 0 1.55,1.05l-6.46,7.78l0,0l-0.24,0.29a15.15,15.15 0 0 1 -2.68,-2.51l-0.04,0zm9.91,5.08l0,-0.41l-0.06,0l0.1,-9.48l0.24,-0.56a4.92,4.92 0 0 0 0.78,0.07a4.31,4.31 0 0 0 1,-0.12l0.76,1.34l0.83,8.64l0,0l0,0.38a14.94,14.94 0 0 1 -2.43,0.2a11.52,11.52 0 0 1 -1.18,-0.06l-0.04,0zm10.65,-3.4l-0.29,-0.3l0,0l-7.22,-7.37l0.19,-0.34a0.46,0.46 0 0 1 0.63,-0.16l0,0a0.08,0.08 0 0 0 0.11,0a4.16,4.16 0 0 0 1,-1.34l7.85,6.52l0,0l0.29,0.24a14.42,14.42 0 0 1 -2.56,2.75zm2.58,-2.86l-0.29,-0.26l0,0l-7.88,-6.54l0.11,-0.27l1,0l8.31,3.55l0,0.06l0.42,0.18l0,-0.09a14,14 0 0 1 -1.69,3.37l0.02,0z"/>
   <path id="svg_3" d="m64.85,32.65l-0.13,0.64l0.19,0.13l2,-0.64l0.19,-0.25s-0.32,-0.07 -0.57,-0.64s-0.32,-0.89 0.13,-0.95l3.05,-0.45a1.28,1.28 0 0 1 0.95,0.58l1.21,-0.13l0,-0.51s1,-0.19 1.4,0.06s1.21,0.83 1.27,1.4a3.5,3.5 0 0 1 -1.84,2.93a10.18,10.18 0 0 1 -3.15,1.18s-0.57,-0.06 0,1.09c0.41,0.81 0.76,0.5 0.76,0.5a8.49,8.49 0 0 0 3.18,-1.52c1.4,-1.15 3.06,-2.35 2.93,-4.58l-0.07,-1a7.4,7.4 0 0 0 1.91,-1.34l0.64,0l0.25,0.26l-0.15,1.15a2.9,2.9 0 0 1 -1,1.14c-0.57,0.32 0.19,1.34 0.19,1.34s0.57,1 0.83,0.82a2.29,2.29 0 0 0 1.08,1s0.25,0.06 0.06,-0.38s-0.57,-0.26 -0.57,-1.4a35.15,35.15 0 0 1 0.64,-4.26a1.58,1.58 0 0 1 -0.45,-1.27a1.33,1.33 0 0 1 0.7,-0.95s0.25,-0.39 0,-0.64l-0.25,-0.26s0.25,-0.06 0,-0.38a1.55,1.55 0 0 0 -1.72,-0.7c-0.89,0.32 -0.89,1 -0.89,1a7.27,7.27 0 0 1 -0.57,1.59c-0.26,0.32 -0.7,0.89 -2.8,0.95l-0.95,0.32l-1.72,-0.06l-1,0s-1.47,0.38 -5,0.89l-1.32,0.22a0.48,0.48 0 0 0 -0.37,0.61l0.96,2.51z"/>
  </g>
 </g>
</svg>